<?xml version="1.0" encoding="UTF-8"?><svg xmlns="http://www.w3.org/2000/svg" xmlns:xlink="http://www.w3.org/1999/xlink" data-name="Layer 3" height="313.7" preserveAspectRatio="xMidYMid meet" version="1.0" viewBox="-0.0 -0.1 175.7 313.7" width="175.7" zoomAndPan="magnify"><g id="change1_1"><path d="M36.351,104.872a1.5,1.5,0,0,1-.8-.229L.7,82.813a1.5,1.5,0,0,1,.027-2.559L134.774.212a1.5,1.5,0,0,1,1.585.03l36,23.361a1.5,1.5,0,0,1-.064,2.556L37.1,104.669A1.5,1.5,0,0,1,36.351,104.872ZM4.375,81.573,36.38,101.621l132.3-76.831L135.509,3.267Z" fill="#0071c9"/></g><g id="change1_2"><path d="M35.968,313.6a1.5,1.5,0,0,1-.792-.227L.708,291.922A1.5,1.5,0,0,1,0,290.648V81.542a1.5,1.5,0,0,1,2.3-1.271L37.148,102.1a1.5,1.5,0,0,1,.7,1.274L37.468,312.1a1.5,1.5,0,0,1-1.5,1.5ZM3,289.815,34.473,309.4l.377-205.2L3,84.252Z" fill="#0071c9"/></g><g id="change1_3"><path d="M35.968,313.6a1.5,1.5,0,0,1-1.5-1.5l.383-208.724a1.5,1.5,0,0,1,.747-1.294L170.79,23.564a1.5,1.5,0,0,1,2.253,1.278l2.68,207.191a1.5,1.5,0,0,1-.748,1.318L36.72,313.394A1.507,1.507,0,0,1,35.968,313.6Zm1.882-209.36-.377,205.255,135.239-78.3L170.076,27.448Z" fill="#0071c9"/></g><g id="change1_4"><path d="M53.968,183a1.5,1.5,0,0,1-1.5-1.5V114.1a1.5,1.5,0,0,1,.743-1.3L155.465,52.929a1.5,1.5,0,0,1,2.258,1.294v67.532a1.5,1.5,0,0,1-.743,1.3L54.725,182.8A1.5,1.5,0,0,1,53.968,183Zm1.5-68.044v63.931l99.255-57.993V56.84Z" fill="#0071c9"/></g><g id="change1_5"><path d="M56.138,218.757a1.5,1.5,0,0,1-1.5-1.5V196.819a1.5,1.5,0,0,1,.754-1.3L79.5,181.685a1.5,1.5,0,0,1,2.247,1.3V204.1a1.5,1.5,0,0,1-.782,1.316L56.857,218.573A1.494,1.494,0,0,1,56.138,218.757Zm1.5-21.07v17.041l21.107-11.522V185.575Z" fill="#0071c9"/></g><g id="change1_6"><path d="M95.734,196.735a1.5,1.5,0,0,1-1.5-1.5V174.8a1.5,1.5,0,0,1,.753-1.3l24.106-13.834a1.5,1.5,0,0,1,2.247,1.3v21.11a1.5,1.5,0,0,1-.781,1.317L96.453,196.552A1.5,1.5,0,0,1,95.734,196.735Zm1.5-21.069v17.041l21.106-11.522V163.554Z" fill="#0071c9"/></g><g id="change1_7"><path d="M133.266,174.331a1.5,1.5,0,0,1-1.5-1.5V152.394a1.5,1.5,0,0,1,.753-1.3l24.107-13.834a1.5,1.5,0,0,1,2.247,1.3v21.11a1.5,1.5,0,0,1-.782,1.316l-24.106,13.161A1.5,1.5,0,0,1,133.266,174.331Zm1.5-21.069V170.3l21.107-11.523V141.15Z" fill="#0071c9"/></g><g id="change1_8"><path d="M133.266,241.545a1.5,1.5,0,0,1-1.5-1.5V185.774a1.5,1.5,0,0,1,.754-1.3l25.233-14.48A1.5,1.5,0,0,1,160,171.3v52.716a1.5,1.5,0,0,1-.7,1.265l-25.232,16.035A1.5,1.5,0,0,1,133.266,241.545Zm1.5-54.9v50.67L157,223.186v-49.3Z" fill="#0071c9"/></g><g id="change1_9"><path d="M56.138,253.028a1.5,1.5,0,0,1-1.5-1.5V231.091a1.5,1.5,0,0,1,.754-1.3L79.5,215.956a1.5,1.5,0,0,1,2.247,1.3v21.11a1.5,1.5,0,0,1-.782,1.317L56.857,252.845A1.493,1.493,0,0,1,56.138,253.028Zm1.5-21.069V249l21.107-11.522V219.847Z" fill="#0071c9"/></g><g id="change1_10"><path d="M56.138,286.131a1.5,1.5,0,0,1-1.5-1.5V264.193a1.5,1.5,0,0,1,.754-1.3L79.5,249.059a1.5,1.5,0,0,1,2.247,1.3V271.47a1.5,1.5,0,0,1-.782,1.316L56.857,285.947A1.494,1.494,0,0,1,56.138,286.131Zm1.5-21.07V282.1L78.745,270.58V252.949Z" fill="#0071c9"/></g><g id="change1_11"><path d="M95.734,230.025a1.5,1.5,0,0,1-1.5-1.5V208.087a1.5,1.5,0,0,1,.753-1.3l24.106-13.834a1.5,1.5,0,0,1,2.247,1.3v21.11a1.5,1.5,0,0,1-.781,1.317L96.453,229.842A1.5,1.5,0,0,1,95.734,230.025Zm1.5-21.07V226l21.106-11.523V196.843Z" fill="#0071c9"/></g><g id="change1_12"><path d="M95.734,262.578a1.5,1.5,0,0,1-1.5-1.5V240.641a1.5,1.5,0,0,1,.753-1.3l24.106-13.834a1.5,1.5,0,0,1,2.247,1.3v21.11a1.5,1.5,0,0,1-.781,1.316L96.453,262.394A1.485,1.485,0,0,1,95.734,262.578Zm1.5-21.069V258.55l21.106-11.523V229.4Z" fill="#0071c9"/></g><g id="change1_13"><path d="M145.318,104.872a1.487,1.487,0,0,1-.782-.221L120.972,90.226a1.5,1.5,0,0,1,1.567-2.559L146.1,102.093a1.5,1.5,0,0,1-.784,2.779Z" fill="#0071c9"/></g><g id="change1_14"><path d="M145.318,91.723a1.493,1.493,0,0,1-.828-.249l-13.1-8.681a1.5,1.5,0,0,1,1.658-2.5l13.1,8.681a1.5,1.5,0,0,1-.83,2.75Z" fill="#0071c9"/></g></svg>