<?xml version="1.0" encoding="UTF-8"?><!DOCTYPE svg PUBLIC "-//W3C//DTD SVG 1.0//EN" "http://www.w3.org/TR/2001/REC-SVG-20010904/DTD/svg10.dtd" []><svg xmlns="http://www.w3.org/2000/svg" xmlns:xlink="http://www.w3.org/1999/xlink" height="1407" version="1.2" viewBox="0 0 1000 1407" width="1000"><g><path d="m179.5 51.3c-2.9 2.2-7.4 8.8-10.1 14.7-2.4 6.1-5.3 15.6-6.6 21-1.1 5.6-1.9 24.4-1.9 42 0 17.5 0.8 36.2 1.9 41.2 1 5.1 5 18.4 9 29.3 3.7 10.9 10.1 25.2 13.8 31.9 3.8 6.6 11.5 17.8 16.8 25.2 5.3 7.2 15.7 18.9 22.6 25.6 7.2 6.6 19.1 16.2 26.3 21.3 7.2 4.7 20.8 12.2 30.1 16.2 9 4 18.1 7.4 19.7 7.4 1.8 0 5 1.1 6.9 2.2 2.6 1.3 2.6 3.7 0.5 9.8-1.6 4.5-3.7 12.8-4.5 18.6-0.5 5.9-4.5 15.2-8.3 20.8-6.6 9.5-6.9 10.6-3.4 19.9 1.8 5.3 2.9 15.2 2.4 21.8-0.8 8.3-5.9 20.5-16 38.6-8.2 14.6-17 33.2-19.1 41.2-2.4 8-4.3 20.7-4.3 27.9 0 7.5 1.3 17.8 2.7 23.4 1.6 5.3 5.6 13.3 9.3 17.8 5 5.9 8.8 8 15.1 8 7.5 0 9.9 1.6 15.5 11.2 3.4 6.4 15.7 21.3 27.1 33.2l20.7 22.1c-24.4 27.9-43.6 51.6-58.5 70.5-14.6 18.9-32.4 44.1-39.3 55.8-6.7 11.7-15.7 29.6-20 39.9-4 10.4-9 25.3-11.1 33.3-2.2 8-4 21-4 28.4 0 11.7-0.8 14.1-4.6 14.1-2.6 0-12.2 3.8-21.2 8-9.3 4.5-17.6 9.6-18.4 11.2q-1.6 3.4-13.3-8.5c-6.4-6.7-15.9-21-21-31.9-5.6-12-10.6-28-12.5-39.9-2.1-14.9-2.1-24.2 0.3-36.7 1.6-9.1 6.1-23.4 9.8-31.9 3.7-8.3 13.3-24.5 21.3-36 12.2-17.2 13.8-21.2 11.2-24.7-1.9-2.4-5.6-5.3-8-6.6-3.5-1.6-9.1-0.6-18.6 3.7-7.7 3.4-21.8 11.4-31.4 17.8-9.6 6.4-25 19.7-34.6 29.3-9.6 9.8-22.9 27.1-29.5 38.8-6.9 11.4-15.7 29.2-19.7 39.6-4 10.4-9.6 28.7-12.2 41.2-3.2 14.9-5.1 33.3-5.1 53.2 0 20.2 1.9 38.3 5.1 53.2 2.6 12.5 8.7 32.2 13.3 43.9 4.2 11.7 15.1 32.2 23.6 45.2 8.8 13.1 25.3 33.5 36.7 45.5 11.7 11.7 27.7 26.3 35.7 32.2 8 6.1 23.7 15.4 34.6 20.7 16.4 8.3 24.2 14.4 43.8 35.4 13.3 13.8 33.3 32.2 44.7 41 11.2 8.5 20.5 16.4 20.5 18 0 1.9-3.5 1.9-10.1 0.3-5.3-1.3-14.1-3.2-19.2-4.2-5-0.8-21.2-2.2-35.9-3-20.4-1.3-30.5-0.5-43.8 3-9.6 2.3-22.1 6.9-28 9.8-5.8 3.2-18.3 13.6-28.2 23.1-10.9 11.2-20.4 24-25.8 34.9-5.5 11.7-8.2 21.2-8.5 30 0 9.1 1.4 13.9 5.3 17.8 3 3 10.4 7 16.5 8.6 7.8 2.3 31.4 3.4 72.6 3.4 33.8 0 83.8-1.6 111.7-3.4 27.7-1.9 62-5.4 75.8-7.5 13.9-2.1 33.6-6.4 43.7-9.8 11.7-3.8 22.3-9.3 29-15.2 6.3-5.8 10.9-12.8 12.2-18.6 1.3-6.1 0.3-15.4-2.4-26.6-2.7-9.6-8.3-25.3-13-35.4-4.6-9.8-7.5-18.3-6.4-19.1 1.3-0.6 5 0.5 8.8 2.4 3.7 2.1 13.3 6.1 21.2 9.3 8 2.9 22.4 7.4 31.9 9.8 12.5 3.5 27.7 4.8 55.9 4.8 28.5 0 43.1-1.1 55.8-4.5 9.6-2.7 26.6-8.3 38.1-12.5 11.1-4.5 21-7.7 21.5-7.5 0.6 0.6-3.7 12.8-9.8 27.4-5.9 14.7-11.2 30.3-12 34.6-0.5 4.3-0.5 11.2 0.5 15.2 0.8 4.2 4.8 11.1 8.8 15.7 4.3 4.7 12.3 10.9 18.1 13.8 5.9 2.9 16.5 6.6 23.9 8.5 7.2 1.9 23.4 4.8 35.9 6.6 12.5 1.6 42.9 4.8 67.9 7 25 2.1 71.5 4.7 103.7 5.5 49.2 1.4 61.7 0.8 78.4-2.9 12.3-2.9 22.4-6.9 26.1-10.4 4.5-4.2 5.9-8.7 5.9-17.2 0-7-3-17.1-8-27.2-4.3-8.7-15.4-23.9-24.8-33.5-11.7-12.5-21.8-20.2-35.1-26.6-10.3-5-23.9-10.1-30.5-11.1-6.7-1.1-21.1-1.9-32-1.9-10.9 0-26.6 1.1-34.5 2.1-8 1.1-18.9 3.2-24 4.5-5 1.1-10.1 1.9-11.4 1.1-1.1-0.5 8-9 19.9-18.6 12.3-9.9 26.6-22.1 32.5-27.4 5.6-5.3 16.5-17.3 23.9-26.9 7.7-9.5 18.4-23.6 23.7-31.4 5.3-7.4 13.3-20.7 17.3-29.2 4.2-8.3 10.9-24.2 14.6-35.1 3.7-10.9 8.3-28.2 10.1-38.6 1.9-11.1 2.4-29 1.6-43.9-1.3-21.8-2.9-27.9-10.9-43.8-5-10.4-14.6-24.2-21.3-31.4-6.6-6.9-16.7-15.5-22.3-18.6-5.3-3.5-16.5-8.8-24.5-12-11.1-4-14.3-6.4-13.8-10.4 0.5-2.6-1.1-14.9-3.5-27.4-2.4-12.5-6.9-29.2-9.8-37.2-3.2-8-10.9-24.2-17.6-35.9-6.6-11.7-19.9-32.2-29.5-45.2-9.6-13.1-24.4-33-33.2-43.9-8.8-10.9-21.8-26.1-29-33.3l-12.8-13.3c27.4-26.8 40.4-42 46.3-51.3 9.8-14.6 12.2-16.5 19.7-16.5 7.2 0 10.1-1.8 16.7-11.4 5.6-7.7 8.5-15.7 9.6-25.8 1.1-8 0.3-21.3-1.3-29.3-1.6-7.9-10.4-29-19.4-46.5-10.4-20.2-17.1-36.7-18.1-45.2-1.4-9.6-0.8-14.6 1.8-18.6 2.4-3.2 3.2-8.3 2.4-12.8-0.8-4-4-8.2-6.9-9.8-3.4-1.6-5.3-5.4-5.3-10.1 0-4-2.4-13.9-5.3-21.9-2.9-7.9-5.3-14.6-5.3-14.6 0 0 5-1.6 11.1-3.7 6.4-1.9 18.6-7.2 27.4-11.4 8.8-4.6 23.7-14.4 33-21.9 9.3-7.4 24.2-22.6 33-33.5 8.5-10.9 19.9-29 25.2-39.9 5.1-10.9 12.3-30 15.7-42.5 4.6-16.8 6.2-29.5 6.2-49.2 0-16.2-1.9-34.1-4.8-45.2-2.4-10.4-6.7-22.1-9.3-26.1-2.4-4-7.8-8-12-8.8-4-1-13.3-0.2-20.5 1.4-7.4 1.8-20.5 5.8-29.2 8.7-8.8 3-23.7 9.4-33.3 14.4-9.6 5.1-24.5 14.4-33.2 21-8.8 6.7-22.4 17.8-30.3 24.7-8 7-20.8 20.8-28.5 31.2-7.7 10.1-18.4 25.8-23.7 34.5-5 8.8-11.9 22.6-14.9 30.6l-5.6 14.7-34-13.3c1.1-19.2 0-24-3.5-27.2-3.4-3.4-8.7-4.8-19.9-4.5-9.6 0-19.7 2.1-27.9 5.9l-12.5 5.8c3.2-21 2.4-23.7-3.5-30.6-5-6.1-8.8-8-15.7-7.7-4.8 0.3-13.5 2.9-19.4 5.9-5.8 2.9-23.1 15.7-38.6 28.4-15.4 12.8-35.6 27.1-45.2 31.9l-17.3 8.8c-8.2-23.4-15.9-39.1-22.6-50-6.6-10.9-18.6-28.4-26.8-38.6-8.3-10.3-20.8-23.4-27.9-29.2-7.2-5.9-20.8-16.5-30.4-23.4-9.5-7.2-24.2-16.5-32.7-20.8-8.2-4.2-20.2-9.3-26.6-11.4-6.1-2.1-18.3-5.8-27.1-8-8.8-2.4-18.9-4.2-22.6-4.2-3.7 0-9.1 1.6-12 3.4z"/><path d="m200.3 70.5c4.8 1 18.1 5 29.8 9 11.7 4 31.3 13.1 43.8 20.2 12.8 7.7 32 22.4 44.7 34.6 12.3 11.7 27.4 28.5 33.8 37.2 6.4 8.8 16.2 26.1 22.3 38.6 6.2 12.5 10.9 25 10.9 27.9-0.2 3.5-5.5 9.1-29.2 25.3l-3.5-8.5c-1.8-4.8-8.5-16-14.3-24.7-5.9-8.8-17.6-22.4-25.8-29.8-8.3-7.7-17.6-14.9-20.8-15.7-3.4-1.1-7.7-1.1-9.3 0-1.8 0.8-3.4 4-3.4 6.9 0 2.9 7.4 12.8 17.2 22.6 9.6 9.6 21.6 24.2 27.2 32.7 6.1 9.6 10.1 19.7 10.9 27.1 1 9.3 0 14.1-4.3 21.3-3.2 5.1-6.6 10.9-7.7 12.8-1.6 2.4-5.6 1.8-18.1-2.1-8.8-3.2-22.6-9.1-30.6-13.3-7.9-4.3-21.8-14.1-30.3-21.9-8.5-7.7-20.7-21.2-26.8-30-6.2-8.8-13.6-21.3-16.8-27.9-3.2-6.7-8.5-21-11.7-31.9-4.8-16.5-5.9-26.4-5.9-55.9 0.3-28.5 1.1-38 4.8-46 4.6-9.6 5.4-10.1 13.1-8.5zm656.1-0.6c2.4 0.3 5.8 7 8.5 16.5 2.4 9.1 4.5 26.4 4.5 39.9 0 15.7-1.6 31.4-5 45.2-3 11.7-10.4 31.4-16.8 43.9-8 16.2-16.7 28.5-31.1 43.4-10.9 11.4-25.3 24.4-31.9 28.4-6.7 4.3-19.2 10.7-28 14.1-8.7 3.8-18.6 7.2-22 8.3-3.2 0.8-5.9 0.5-5.9-1.1 0-1.3-2.9-6.6-6.6-11.2-3.5-4.7-6.7-12.2-6.7-16.7 0-4.5 3.5-15.2 7.5-24 4.5-9.5 15.7-24.4 27.9-37.7 14.1-15.4 20.5-24.2 20.5-28.7 0-3.8-1.6-7.2-3.2-7.8-1.9-0.5-6.1 0.3-9.3 2.2-3.5 1.6-14.1 10.9-24 20.7-11.9 11.5-21.8 24.5-28.7 37.8-5.8 11.2-11.4 20.2-12.5 20.2-1.3 0-8-4.5-15.1-9.8-12.8-9.9-13.1-10.4-10.4-19.5 1.6-5 7.4-18.8 13.5-30.5 5.9-11.7 17.1-29 24.5-38.6 7.7-9.6 21-23.9 29.5-32.2 8.8-8.2 22.9-19.9 31.7-25.8 8.8-5.8 21.3-13.3 27.9-16.5 6.7-3.2 22.1-9.3 34.6-13.5 12.5-4 24.5-7.2 26.6-7zm-330.1 109.1c3 0.5 4 3.4 3.5 9.8-0.3 5.1-2.7 14.7-5.1 21.3-2.4 6.7-3.4 14.1-2.6 16.8 1 2.4 4 4.5 6.4 4.5 2.6 0 7.1-2.4 10.1-5.3 2.9-2.7 12.2-8.5 20.4-13.1 8.8-4.8 19.5-8.2 24.8-8.2 8.2 0 9 0.5 7.7 6.1-0.8 3.2-4 9.3-6.7 13.8-2.6 4.6-6.3 10.4-7.9 13.3-1.6 3-2.2 7.7-1.4 10.7 1.9 4.8 2.4 4.8 5.1 1 1.8-2.1 7.2-6.1 11.7-8.5 8.2-4.2 9.3-4.2 22.6 1.1 7.7 2.9 20.7 9.3 28.7 13.8 8 4.5 24 17.3 35.7 28.5 13 12.5 24.2 26.3 29.7 36.7 5.1 9 8.6 17.3 7.8 18.6-0.6 1.1-5.1-1.6-9.9-5.9-4.8-4.2-15.4-10.9-23.4-14.3-11.7-5.6-18.9-6.9-37.2-6.9-20-0.3-24.5 0.8-38.6 7.4-8.8 4.5-21.3 13.3-27.9 20-6.7 6.9-13.8 16.4-16.5 21.5-2.4 5.1-5.6 12.5-10.1 23.9l-12-5.3c-8-3.4-14.9-4.8-20.7-3.7-4.5 0.8-11.2 3.2-14.6 5.3-3.2 2.1-7 3.7-8.6 3.7-1.6 0-2.6-2.6-2.6-5.8 0-3.5-3.7-12.8-8.5-20.8-4.8-7.9-14.9-19.4-22.1-25.2-7.5-6.1-20.5-13.6-29.3-17-12.7-5.1-19.4-5.9-33.2-4.8-10.1 0.8-23.9 4.2-33.2 8.5-8.8 3.7-20 10.6-24.5 15.4-4.8 4.8-9.6 7.5-10.7 6.4-1.3-1.1 2.2-10.4 7.2-20.8 6.9-14.3 13.9-23.1 27.7-35.6 13-11.7 27.4-21 50.5-32.4 23.4-11.7 37.5-21.1 52.1-33.8 10.9-9.9 27.2-23.2 35.7-29.8 8.8-6.7 17.5-11.4 19.9-10.9zm-119.4 151.1c7.5-0.3 17.6 2.3 26.6 6.6 8 3.7 19.2 11.2 24.7 16.5 5.6 5.3 12.8 14.6 16 20.5q5.6 10.6 5.6 25.2c0 8-2.1 21.6-4.5 30.1-3.2 10.4-8.3 19.1-16 27.4-6.1 6.9-15.9 14.6-21.8 17.8-8 3.7-16 5.3-30.6 5.3-15.1 0-22.6-1.3-31.4-5.8-6.1-3-15.4-9.6-20.7-14.1-5.3-4.8-12.8-15.5-16.5-23.4-5.6-11.2-7.2-18.6-7.2-31.9 0-13.3 1.6-20.8 7.2-32.5 4.3-8.5 11.4-18.3 16-22.1 4.7-3.4 15.9-9.3 24.7-13 8.8-3.7 21.3-6.6 27.9-6.6zm236.7 0c6.7-0.3 17.8 1.5 25.3 3.9 7.2 2.2 17 6.7 21.3 9.6 4.2 3.2 10.1 8.3 12.7 11.2 2.7 3.2 7.7 11.7 11.5 18.9 5 10.3 6.3 17 6.1 29.2-0.3 8.8-2.7 22.1-5.3 29.3q-4.8 13.3-18.9 26.8c-9.1 8.8-18.4 14.9-26.1 17.3-6.6 1.9-19.1 3.5-27.9 3.5-11.7 0-19.4-1.9-29.3-6.9-7.4-3.8-17.3-11.5-22-17-4.8-5.6-10.4-15.7-12.5-22.4-2.2-6.6-4.6-17.8-5.4-25.3-0.5-7.1-1.6-13.8-2.4-14.6-0.8-0.8 0.8-6.6 3.2-13.3 2.4-6.9 9.6-17.3 17.1-24.4 6.9-7.2 19.1-15.7 26.6-19.2 8.2-3.7 19.1-6.6 26-6.6zm-116.7 66.2c7.4 0 12.2 1.8 17 6.6 3.7 3.7 7.2 9.9 8 14.1 0.8 4 2.9 12 4.2 17.8 1.6 5.9 6.7 16.5 11.2 23.7 4.8 7.2 12.8 16.2 17.8 20.2 5.1 4 14.6 10.1 21.3 13.6 10.1 5.3 15.9 6.1 38.5 6.4 24.8 0 27.7-0.6 42.6-8.3 9.3-5 21.3-14.1 28.7-22.6 6.9-8 13.9-18.3 15.4-22.9 1.4-4.7 3.2-8.7 4.3-8.7 1.3 0 10.1 15.1 19.7 33.7 11.2 21.9 18.3 38.9 19.7 47.4 1 7.7 0.5 18.1-4 35.9l-7.5-4c-5.6-2.9-7.9-3.2-11.4-0.5-2.1 1.8-10.6 13.8-18.6 26.6-8.8 14.6-21.6 30.3-33.3 41.2-10.3 9.8-23.1 20.7-28.2 24.5-5 3.7-19.4 11.4-32.1 17.2-12.8 5.9-23.7 12.5-24.5 14.7-0.8 2.1 0 5 1.9 6.1 1.8 1.1 10.1 1.6 18 1.1 8.5-0.8 20.5-4 28.5-8.3 7.7-3.7 14.6-8 15.4-9.6 0.8-1.6 3.2-2.6 5.3-2.6 2.2 0 14.4 12.2 27.2 27.1 13 14.9 29.5 35.1 36.7 44.7 7.4 9.6 17.5 23.9 22.8 31.9 5.4 8 14.9 24.2 21.3 35.9 6.4 11.7 14.1 28.5 17 37.2 3.5 9.3 5.9 24.2 6.4 35.9 0.6 12.5-0.8 23.4-3.2 29.3-1.8 5-9.5 15.2-16.7 22.3-8.3 8-20.5 16.3-33 22.1-10.9 4.8-24.2 10.9-29.3 13.6-7.4 3.4-11.7 9-19.9 25.5-9 18.1-12.2 22.1-22.6 27.4-6.7 3.5-14.4 6.1-17.3 5.6-3.5-0.5-5.6-3.2-6.1-7.5-0.5-3.7 0.8-14.6 3.2-24.4 3.4-14.7 3.7-18.9 0.8-22.1-1.6-2.4-5.3-4.3-8-4-2.7 0-6.4 4.3-9.6 11.4-2.6 6.2-5.8 16.8-6.6 24-0.8 6.9-3 12.5-4.3 12.5-1.6 0-5.8-5.1-10.1-11.2-5.6-8.5-7.2-14.1-6.9-24.5 0.3-7.4 2.4-20.2 5-28.2 2.7-7.9 7.2-19.4 10.2-25.2 2.9-5.9 9.5-16.5 14.8-23.7 5.9-8 18.4-18.9 54.3-42.8l-1.6-12c-0.5-6.6-6.4-24.4-12.5-39.9-6.1-15.4-13.6-30.6-16.7-34-3.2-3.2-8-5.9-10.7-5.9-2.4 0-5 2.2-5.8 4.8-0.8 2.4 4.5 19.4 11.9 37.8 7.2 18.3 13.3 35.1 13.3 37.2 0 2.2-4.5 6.1-9.8 8.5-5.6 2.4-16.2 9.6-23.4 16.3-7.5 6.3-17 17.2-21.3 23.9-4.5 6.9-9 12-10.6 11.4-1.6-0.5-27.2-6.4-57.2-13-30.1-6.6-58.3-12.8-62.5-13.8-4.5-0.8-11.2-0.3-15.4 1.3-4 1.3-8.8 5.3-10.9 8.8-2.2 3.2-7 18.9-10.7 35.1-4 16.2-10.4 45.5-14.6 65.1-4.5 19.7-8.5 38.1-9.3 40.7-1.3 3.8-2.7 4-7.7 1.6-3.2-1.8-6.1-3.4-6.7-4-0.2-0.5 2.4-5 5.9-9.5 3.4-4.8 7.4-13.1 9.3-18.1 1.6-5.1 2.9-14.9 2.9-21.8 0-7.2-1.6-19.2-3.7-26.6-2.1-7.7-5.6-18.9-7.7-24.8-2.2-5.8-9.6-19.4-16.8-30-7.4-11.2-18.6-23.9-26.3-29.5-7.5-5.6-17.3-12-22.1-14.4-4.5-2.7-8.5-6.1-8.5-7.7 0-1.9 3.5-12.5 7.7-23.4 4-10.9 10.1-25 13.3-31.1 2.9-6.4 5.6-13.9 5.6-16.8 0-2.9-2.1-5.8-4.8-6.6-2.4-0.8-6.4-0.8-8.5-0.3-2.1 0.8-7.4 8.2-11.7 16.8-4.3 8.5-10.9 25-14.6 36.7-5.1 14.6-6.7 24.4-5.6 31.3 1 8.8 3.2 11.2 14.6 17.9 7.2 4 18.6 11.9 25 17.5 6.4 5.9 15.2 15.2 19.2 21 4 5.9 10.3 18.6 14.1 28.7 3.7 9.9 8.2 23.5 9.5 30.6 1.6 6.9 1.9 16.8 0.8 21.8-1 5.1-5 13.3-9.3 18.1-4 4.5-8.5 8-10.1 7.2-1.6-0.8-2.6-6.1-2.6-12 0-5.8-2.7-15.9-6.2-22.6-3.2-6.6-8.2-12.7-11.1-13.5-3-0.8-6.9 0-8.8 2.1-2.7 2.7-2.7 5.3 0.8 13.6 2.1 5.3 4 17 4 25.8 0 12.5-0.8 15.9-4 15.9-2.1 0-8-1.6-12.8-3.4-4.5-2.2-12.5-8-17.3-13.3-4.5-5.6-11.4-15.7-15.1-23.2-4.8-9.3-10.1-15.1-18.1-19.9-6.1-3.5-12.8-6.7-14.6-6.7-1.6 0-10.7-3.7-20-8.2-9-4.3-21-12.5-26.6-17.8-5.6-5.4-12.5-14.7-15.1-20.5-3.5-6.9-5.4-16.2-5.4-26.6 0-8.8 2.7-24.2 5.6-34.6 3.2-10.4 10.4-28.2 16.3-39.9 6.1-11.7 18.3-32.7 27.6-46.5 9.1-13.9 30.1-41.2 46-60.4 16.2-19.4 30.6-35.9 32.2-36.7 1.6-0.8 12.5 3.5 24.5 9.3 16.5 8 25.2 10.9 34.5 10.7 8.8 0 13.3-1.4 14.7-4 1.3-2.7 0.5-5.6-1.9-7.8-2.1-1.8-10.6-6.1-18.6-9.3-8-3.2-22.3-11.1-31.9-17.5-9.6-6.7-25.3-20-34.9-29.8-9.5-9.8-23.4-27.7-30.3-39.4-7.2-11.7-14.6-22.6-17-24.4-3.5-2.7-5.9-2.4-11.7 0.5-6.9 3.7-7.2 3.7-10.1-3.2-1.6-4.2-2.4-15.1-1.6-24.7 1.1-14.7 4-22.4 18.3-50 9.1-17.8 17.9-32.5 19.5-32.5 1.3 0 4.2 4.3 5.8 9.3 1.9 5.1 9.1 15.2 16 22.1 7.1 7.2 19.4 16.5 27.4 20.8 13.3 6.9 17.2 7.4 41.2 7.7 23.7 0 28.2-0.8 41.2-7.2 8-4 19.2-11.4 24.5-16.5 5.6-5.3 12.7-14.6 15.9-20.7 3.2-6.4 7.5-16.3 9.3-22.1 1.9-5.9 3.2-13.3 3.2-16.5 0-3.2 3.5-8.5 8.3-12.5 5.8-4.8 11.4-6.9 18.9-6.9zm-409.6 333.8c1.3 0.8-0.5 7.7-4.3 15.4-3.4 7.4-8.5 22.9-10.9 33.8-2.6 12.7-3.7 26.6-2.9 38.5 0.8 10.4 4 26.3 7.2 35.9 3.2 9.6 8 21.6 10.6 26.6 2.7 5.1 10.9 17.3 18.4 27.4 12.5 16.5 13.3 18.1 8.7 21.6-2.3 2.1-7.7 9.5-11.7 16.7-3.9 6.9-9 21.8-11.7 32.7-3.1 14.1-3.9 25.8-2.9 39.9 1.1 10.9 4 29 6.7 39.9 2.9 10.9 7.7 25.3 10.6 31.9 2.9 6.7 7.2 16.5 9.6 22.1 3.2 7.4 3.4 9.8 0.8 9.8-1.6 0-9.6-5.3-17.6-11.4-7.7-6.1-21.5-18.9-30.6-28.5-9-9.5-21.2-24.4-27.1-33.2-6.1-8.8-14.3-22.6-18.3-30.6-4-8-9.6-21.3-12.5-29.2-2.7-8-7-23.7-8.8-34.6-2.1-10.9-4-30.9-4-43.9 0-13.6 2.4-33.8 5-46.5 3-12.5 8.3-30.9 12.3-41.3 4-10.3 12.5-26.8 19.1-37.2 6.7-10.4 21-27.4 31.9-37.8 11-10.6 21.1-18.8 22.4-18zm390.1 174.2c4 0 17.3 2.3 29.8 5.3 12.5 3.2 29.8 7.2 38.6 9.3 8.8 2.1 20.5 4.8 26.1 5.8 9.8 2.2 10.3 2.7 8.5 10.1-0.8 4.3-2.4 11.7-3.2 16-0.8 4.3-1.6 8.2-1.6 8.8-0.3 0.5-8.3-1.1-17.8-3.2-9.6-2.1-29.3-6.4-43.9-9.6-14.6-3.2-31.4-7.2-37.3-9-8.2-2.7-10.9-4.8-11.4-9.9-0.5-3.4 0.5-10.3 2.1-14.9 2.4-6.9 4.6-8.7 10.1-8.7zm-295.2 2.6c1.6 0 6.7 6.4 10.7 14.1 4.2 7.5 13.5 18.9 20.7 25.3 7.2 6.1 14.6 11.4 16.5 11.1 2.1 0 3.7 7.2 4.8 23.5 0.8 12.7 2.1 26.8 2.7 31.1 0.8 4.2 3.1 17 5.3 27.9 2.4 10.9 7.2 29 10.9 39.9 3.7 10.9 11.4 29 16.7 39.9 5.6 10.9 17.1 29.5 25.3 41.2 8.5 11.7 21.8 28.5 30.1 37.2 7.9 8.8 18.6 23.2 23.4 32 4.7 8.7 13.5 27.1 19.6 40.6 6.7 15.2 10.7 28.5 10.7 35.2 0 8.5-1.4 11.7-7.2 15.9-4.3 3.2-12.8 7.2-19.4 9.3-6.7 1.9-24.5 5.3-39.9 7.7-15.4 2.2-39.9 4.8-54.5 5.9-14.7 0.8-32 1.8-38.6 2.1-6.6 0.5-33.2 1.9-59.3 3.2-25.8 1.3-47.1 1.6-47.1 0.5 0-1.3 2.1-6.4 4.8-11.7 2.4-5.3 8.8-12.2 13.8-15.4 5.1-2.9 12.8-6.9 17.3-8.5 5.1-1.9 8.3-4.8 8.8-8.5 0.3-3.5-1.6-6.9-4-8.5-3.2-1.6-8.2-1.6-14.1 0.2-5 1.4-14.1 5.4-19.9 8.8-5.9 3.5-13.6 10.7-17.3 16.5-3.7 5.6-8 13.8-9.6 18.4-2.7 7.1-4 7.9-13.3 7.7-5.6 0-13.6-1.1-17.5-1.9-5.6-1.3-7.5-3.5-7.5-8.5 0-3.7 2.9-12.2 6.4-19.2 3.4-7.1 12.8-19.4 20.5-27.9 9-9.3 20.2-17.5 30.3-22.3 14.3-6.7 18.9-7.5 43.9-7.5 15.4 0 36.9 1.6 47.8 3.2 10.9 1.9 30.1 5.3 42.6 7.7 16.2 3.2 24.7 3.5 30.6 1.6 4.5-1.3 8.2-4.8 8.8-7.7 0.5-2.9-2.4-8.5-6.7-12.7-4-4.3-16.5-14.4-27.4-22.4-10.9-8.2-30-23.4-42.5-33.5-12.3-10.4-30.6-29-40.5-41.5-9.8-12.5-23.1-32.7-29.8-45.2-6.6-12.5-14.3-29.8-17.5-38.6-3.2-8.7-7.5-23.9-9.3-33.7-2.1-10.1-4-25-4-33.3 0-8.5 1.9-21.3 4-28.7 2.4-7.2 6.9-18.1 10.4-23.9 3.4-5.9 12.5-16.3 19.9-23.2 7.5-7.2 18.6-15.1 24.7-18.1 6.4-2.9 13.1-5.3 14.7-5.3zm626.6 0c1.8 0.3 10.1 4 18.8 8.8 8.6 4.8 20.8 14.1 27.2 21.3 6.4 6.9 14.9 19.4 18.9 27.9 4.7 10.4 7.4 21 8.2 33.8 0.5 10.3-0.3 27.6-1.9 38.5-1.8 10.9-7.1 30.1-11.7 42.6-4.7 12.5-15.1 33.2-23.1 46.3-9.3 15.1-24.7 33.7-42.6 52.1-15.4 15.7-39.3 36.7-53.1 47.1-13.9 10.3-29.3 22.6-33.8 27.1-4.8 4.5-8.8 10.4-8.8 13-0.3 2.4 1.9 6.4 4.3 8.5 3.1 3 7.4 3.5 16.7 2.2 6.7-1.1 21.8-3.8 33.5-5.9 11.7-2.4 32.2-5.6 45.2-7.2 13.1-1.6 31.2-2.1 39.9-1.3 9.3 1.1 23.2 5.1 33.3 9.8 10.9 5.4 22.6 13.9 31.9 23.4 8 8.3 17.3 20.5 20.7 27.7 3.2 6.9 5.9 14.6 5.9 17.3 0 3.2-2.9 5-9.9 6.4-5.5 1-13.8 2.6-18 3.7-7.5 1.3-8.3 0.8-9.9-7.4-1-4.8-5.6-13.9-10.1-20-5.3-7.7-12.5-13.6-21.8-17.8-7.7-3.5-17.3-7.2-21.3-8-4.8-1.1-8.7-0.3-11.4 2.4-2.1 2.1-3.7 5.6-3.2 7.4 0.5 1.6 7.4 7 15.7 11.2 8.2 4.3 17.5 10.4 20.5 13.3 3.2 2.9 6.9 9.1 11.1 21.3l-40.7-2.4c-22.3-1.3-46.5-2.7-53.9-2.9-7.2-0.6-24.8-1.6-38.6-2.7-13.8-0.8-39.1-3.4-55.9-5.6-16.7-2.1-36.4-4.8-43.8-6.4-7.2-1.3-17.3-5.3-22.4-8.5-5-3.4-10.4-8.2-11.9-10.6-2.2-3.5-2.2-8 0.5-17.3 1.8-7.2 10.4-27.4 19.1-45.2 9.6-19.7 20.5-37.8 27.4-45.2 6.4-7.2 18.9-21.8 27.4-32.7 8.8-10.9 23.2-34.3 31.9-51.9 9.1-17.5 18.9-40.1 21.8-50.5 3-10.4 7-25.8 8.6-34.6 1.6-8.8 3.9-20.7 5.3-26.6 1-5.8 2.1-18.9 2.4-29.2 0.2-16.3 1-19.2 6.4-22.7 3.1-2.1 11.7-9.3 18.6-15.9 7.1-6.7 15.1-17 18.1-23.1 2.9-6.4 6.9-11.5 8.5-11.5zm-344.2 53.2c2.4 0 8.3 1.1 13 2.7 7.5 2.4 8.6 3.7 8.6 11.9 0 5.1-1.1 11.7-2.7 14.7q-2.7 5.3-10.6 5.3c-4.3 0-11.2-1.3-15.2-2.9-6.9-2.4-7.4-3.2-5.1-13.3 1.1-5.9 3.5-12.3 4.8-14.4 1.6-2.1 4.8-4 7.2-4zm-208 11.2l13.1 4c11.9 3.7 13.5 5.6 20.2 19.1 4 8.3 10.6 18.6 14.6 22.9 4 4.2 10.4 9.8 14.1 12.2 3.7 2.4 11.4 5.9 17.3 7.7 8 2.4 14.1 2.7 24.7 0.3 13.1-2.7 14.9-2.4 29.3 4.8 8.2 4.2 22.9 10.1 32.4 13.3 9.6 3.2 30.6 7.4 46.6 9.8 24.4 3.7 33.2 3.7 53.2 1.1 13.3-1.6 31.6-4.8 41.2-7.2 9.6-2.1 26.8-8.8 38.5-14.4 19.7-9.5 22.1-10.1 32-7.4 7.9 2.1 14.1 1.9 23.9-0.5 10.1-2.4 16.5-6.7 26.9-16.8q13.5-13.6 18.6-27.6c4.8-13.1 5.8-14.4 17-17.6 7.4-2.4 13-2.7 14.6-1.1 1.9 1.6 1.1 12.3-1.6 32.2-2.4 16.5-8.7 42.8-14.3 59.1-5.3 16.2-13.3 36.4-17.8 45.2-4.3 8.7-13.6 23.6-20.3 33.2-6.6 9.6-19.4 24.5-28.2 33.5-9 8.8-23.9 21.3-33.5 27.7-9.5 6.4-23.9 14.3-31.9 18.1-8 3.4-24.7 8.7-37.2 11.9-16 3.8-31.7 5.4-53.2 5.6-20.7 0-37.5-1.6-51.9-4.8-11.7-2.9-29-8.5-38.5-12.7-9.6-4.3-25-13.1-34.6-19.4-9.6-6.2-25.8-20.3-35.9-30.9-10.4-10.9-23.7-26.9-29.5-35.6-6.1-8.8-14.1-21.8-17.6-29.3-3.7-7.2-9.8-21.5-13.5-31.9-3.8-10.4-9.4-31.1-12.3-46.5-3.2-15.5-5.8-34.6-5.8-43.1zm261.4 2.4c2.9 0 8.5 1 12.5 2.6 6.9 2.7 7.2 3.5 5.3 15.4-1 6.7-3.4 13.3-5.3 14.4-1.9 1.1-6.9 1.3-11.4 0.3-4.3-0.8-9.6-2.9-11.5-4.5-2.4-2.2-3.2-5.9-1.8-12.3 1-5.3 3.2-10.9 4.5-12.7 1.6-1.9 5-3.2 7.7-3.2zm51.3 12.2c3.2 0.8 5.6 1.9 5.9 1.9 0 0.2 2.1 7.7 4.8 16.4 2.4 8.8 4.2 16.3 3.7 16.5-0.3 0.3-6.7-1-27.4-6.1l1.1-11.7c0.5-6.4 2.1-13.3 3.7-15.4 1.6-2.1 4.8-2.7 8.2-1.6zm-115.1 30.3c6.9 0 12.2 1.6 15.7 5.3 4.5 4.3 5 6.7 2.6 13.9-1.3 4.8-2.6 9-2.6 9.3 0 0.2-2.7 0.8-5.9 0.8-3.4 0-9.8-1.4-14.6-2.7-7.5-2.4-8.8-4-8.8-10.6 0-4.5 0.8-9.9 1.6-12q1.6-4 12-4zm51.6 10.7c3.7 0 9.5 1 13.3 2.6 4 1.6 6.6 4.8 6.6 8 0 2.9-1 5.8-2.6 6.6-1.4 0.6-8.6 2.2-16 3.2-12.8 1.9-13.3 1.6-13.6-4.2 0-3.2 1.1-8.3 3-11.2 1.6-2.9 5.5-5 9.3-5z" fill="#fff" fill-rule="evenodd"/><path d="m404.3 387.2c-3 2.2-7.2 7.5-9.4 11.7-2.1 4.6-3.4 11.5-2.6 16 0.8 4.5 4.8 10.9 9.3 14.6 4.8 4 11.4 6.7 16.2 6.7 5.6 0 10.7-2.7 16-8 5.6-5.9 7.7-10.6 7.7-17.8 0.3-5.9-1.9-12.8-4.5-16.3-3-3.9-9.1-7.1-16.3-8.2-7.9-1.6-12.7-1.1-16.4 1.3zm224.2-2.4c-3.2 0.6-8.6 4.3-11.5 8.3-3.4 4.5-5.6 10.9-5.3 17.3 0 7.4 2.1 11.9 8 17.8 5 5 10.6 8 15.4 8 4 0 9.8-1.9 13.3-4 3.2-2.1 7.7-7.5 9.8-12 3.2-6.1 3.5-10.1 1.4-17.3-1.6-5-5.3-10.9-8.5-13-3.5-2.1-8.5-4.3-11.5-4.8-2.9-0.8-8-0.8-11.1-0.3zm-133.8 112.8c-6.7 2.9-14.6 8-18.1 11.2-3.2 3.2-6.7 10.6-7.5 16.5-1 5.8-0.2 13.3 1.4 16.7 1.6 3.2 8 9.6 14.1 13.9 6.4 4.5 15.7 9.3 20.7 10.6 9.3 2.4 9.3 2.6 11.2 20.5 1.9 17 1.6 18.3-4.5 24.2-5.4 4.5-9.9 5.8-21.3 5.8-8.8 0-19.4-2.1-26.6-5.3-6.7-2.9-17-9.8-22.9-15.2-6.1-5.5-12.7-13.3-14.6-17.2-2.1-4.3-3.7-9.6-3.7-12 0-2.7 2.4-6.4 5.3-8 4.2-2.7 4.8-4.5 2.7-8.8-1.9-4-5.4-5.3-12.8-5.3-5.9-0.3-12.8 1.9-17.3 5.3-4 3-9 9.1-11.2 13.3-2.1 4.6-4 10.9-4 14.7 0 3.7 1.6 7.4 3.2 8.5 1.9 0.8 5.6-1.1 8-4 2.7-3.2 5.6-5.9 6.7-5.9 1.3 0 3.4 3.8 5.3 8.5 1.6 4.8 8.8 14.7 15.9 21.8 6.9 7.2 18.1 15.7 24.8 18.9 6.6 3.5 18.6 7.2 26.6 8.8 9 1.6 18.8 1.6 25.2 0 5.9-1.1 13.6-3.5 17.3-5 5.1-2.2 9.3-1.4 19.2 2.9 8.5 3.4 18.6 5.3 29.2 5.3 12.8 0 20.5-1.9 32.7-7.7 9.1-4 20.8-12.5 26.6-19.2 6.1-6.3 13.3-17.3 16-24.2 2.9-7.1 6.1-12.7 7.2-12.7 1.3 0 3.7 2.4 5.3 5.3 1.8 2.9 5 5.3 6.6 5.3 1.9 0 4-2.1 4.8-4.5 0.8-2.7 0.6-8.3-0.5-12.5-1.1-4.3-6.1-11.2-10.9-15.4-6.7-5.9-11.2-7.5-20.5-7.5-9 0-12.2 1.1-13.3 4.8-0.8 2.4 0.8 6.9 4 9.8 4.5 4.6 4.8 6.7 2.4 14.7-1.3 5-6.9 14.6-12.5 21-5.6 6.9-15.4 14.3-23.1 18.1-7.5 3.2-17.9 6.1-23.4 6.1-5.4 0-14.7-1.9-20.5-4-5.9-2.1-10.9-5.6-10.9-7.2-0.3-1.9-0.6-11.4-0.8-21.3-0.3-17 0-18.1 6.4-19.4 3.7-0.8 12.5-4.8 19.9-9 9.3-5.1 14.9-10.7 18.4-17.8 2.9-6.7 4.2-12.8 2.9-17.1-0.8-3.7-3.5-9.3-5.6-12.5-2.1-3.4-10.1-9-17.8-12.7-10.9-5.3-18.1-6.7-33.8-6.7-14.4 0-23.4 1.6-31.9 5.6z"/><path d="m502.7 516c-3.5 2.4-2.4 4.2 5.3 10.6 5 4.5 11.9 8 15.4 8 3.2 0 10.6-2.4 16.5-5.3 5.8-3 10.6-6.2 10.6-7.5 0-1.1-2.9-3.4-6.6-5.3-3.7-1.6-13.6-3.2-22.1-3.2-8.2 0-17 1.3-19.1 2.7z" fill="#fff"/></g></svg>